<?xml version="1.0" encoding="UTF-8"?>
<svg version="1.1" xmlns="http://www.w3.org/2000/svg" width="256" height="455">
<path d="M0 0 C13.86 0 27.72 0 42 0 C42 13.86 42 27.72 42 42 C55.86 42 69.72 42 84 42 C84 54.87 84 67.74 84 81 C70.14 81 56.28 81 42 81 C42 94.2 42 107.4 42 121 C69.72 121 97.44 121 126 121 C126 133.87 126 146.74 126 160 C98.28 160 70.56 160 42 160 C42 205.54 42 251.08 42 298 C43.98 298.66 45.96 299.32 48 300 C49.24950615 300.53663387 50.48851583 301.09904261 51.71044922 301.69580078 C52.37971436 302.02040283 53.04897949 302.34500488 53.73852539 302.67944336 C54.42035889 303.01468018 55.10219238 303.34991699 55.8046875 303.6953125 C56.44736572 304.00782959 57.09004395 304.32034668 57.75219727 304.64233398 C60.12844148 305.79917126 62.50154193 306.96245717 64.875 308.125 C72.856875 312.023125 72.856875 312.023125 81 316 C81 329.2 81 342.4 81 356 C74.25 353.75 74.25 353.75 71.28955078 352.30419922 C70.62028564 351.97959717 69.95102051 351.65499512 69.26147461 351.32055664 C68.57964111 350.98531982 67.89780762 350.65008301 67.1953125 350.3046875 C66.55263428 349.99217041 65.90995605 349.67965332 65.24780273 349.35766602 C62.87155852 348.20082874 60.49845807 347.03754283 58.125 345.875 C50.143125 341.976875 50.143125 341.976875 42 338 C42 357.47 42 376.94 42 397 C28.14 397 14.28 397 0 397 C0 370.6 0 344.2 0 317 C-4.455 315.515 -4.455 315.515 -9 314 C-11.4166079 312.9393562 -13.81384443 311.83325513 -16.1875 310.6796875 C-16.8160791 310.37555939 -17.4446582 310.07143127 -18.09228516 309.75808716 C-19.40083095 309.12369447 -20.70812216 308.48670759 -22.01416016 307.84716797 C-24.02090121 306.86476781 -26.03155531 305.89076143 -28.04296875 304.91796875 C-37.84234689 300.15765311 -37.84234689 300.15765311 -39 299 C-39.08865208 296.1156618 -39.11521296 293.25537842 -39.09765625 290.37109375 C-39.0962413 289.50686295 -39.09482635 288.64263214 -39.09336853 287.75221252 C-39.08775239 284.98060708 -39.07519719 282.2090812 -39.0625 279.4375 C-39.05748708 277.5631522 -39.05292381 275.68880315 -39.04882812 273.81445312 C-39.03777772 269.20960456 -39.0205023 264.60481579 -39 260 C-25.83565421 264.38811526 -13.56454557 271.11036926 -1 277 C-0.67 238.39 -0.34 199.78 0 160 C-27.72 160 -55.44 160 -84 160 C-84 147.13 -84 134.26 -84 121 C-56.28 121 -28.56 121 0 121 C0 107.8 0 94.6 0 81 C-13.86 81 -27.72 81 -42 81 C-42 68.13 -42 55.26 -42 42 C-28.14 42 -14.28 42 0 42 C0 28.14 0 14.28 0 0 Z " fill="#FFFFFF" transform="translate(107,23)"/>
</svg>
